<svg width="28" height="28" viewBox="0 0 28 28" fill="none" xmlns="http://www.w3.org/2000/svg">
<path d="M23.2181 2.6914C23.0304 2.21354 22.3566 2.21354 22.1688 2.6914L21.6667 3.96923C21.6094 4.11512 21.4944 4.23061 21.349 4.28815L20.0758 4.79211C19.5997 4.98057 19.5997 5.65684 20.0758 5.84531L21.349 6.34928C21.4944 6.40682 21.6094 6.5223 21.6667 6.66819L22.1688 7.94602C22.3566 8.42387 23.0304 8.42387 23.2181 7.94603L23.7203 6.66819C23.7776 6.5223 23.8926 6.40682 24.038 6.34928L25.3111 5.84531C25.7873 5.65684 25.7873 4.98057 25.3111 4.79211L24.038 4.28815C23.8926 4.23061 23.7776 4.11512 23.7203 3.96923L23.2181 2.6914Z" stroke="#3AB0FF"/>
<path d="M18.7054 9.48436C18.5176 9.00652 17.8439 9.00652 17.656 9.48436L17.473 9.95027C17.4157 10.0962 17.3007 10.2116 17.1553 10.2692L16.6911 10.4529C16.215 10.6414 16.215 11.3177 16.6911 11.5061L17.1553 11.6899C17.3007 11.7474 17.4157 11.8629 17.473 12.0088L17.656 12.4747C17.8439 12.9525 18.5176 12.9525 18.7054 12.4747L18.8885 12.0088C18.9458 11.8629 19.0608 11.7474 19.2062 11.6899L19.6704 11.5061C20.1465 11.3177 20.1465 10.6414 19.6704 10.4529L19.2062 10.2692C19.0608 10.2116 18.9458 10.0962 18.8885 9.95027L18.7054 9.48436Z" stroke="#3AB0FF"/>
<path d="M8.60545 23.3482C8.18715 23.1062 7.65189 23.2491 7.40992 23.6674C7.16794 24.0857 7.31088 24.621 7.72919 24.863L8.60545 23.3482ZM3.13737 20.2711C3.37934 20.6895 3.91461 20.8324 4.33292 20.5904C4.75121 20.3484 4.89415 19.8132 4.65219 19.3949L3.13737 20.2711ZM24.7923 13.9997C24.7923 19.9597 19.9607 24.7913 14.0007 24.7913V26.5413C20.9273 26.5413 26.5423 20.9263 26.5423 13.9997H24.7923ZM3.20898 13.9997C3.20898 8.03961 8.04058 3.20801 14.0007 3.20801V1.45801C7.07408 1.45801 1.45898 7.0731 1.45898 13.9997H3.20898ZM18.084 16.6247C14.3791 16.6247 11.3757 13.6212 11.3757 9.91634H9.62565C9.62565 14.5878 13.4125 18.3747 18.084 18.3747V16.6247ZM23.8302 13.3802C22.6541 15.3265 20.5202 16.6247 18.084 16.6247V18.3747C21.158 18.3747 23.8481 16.7342 25.3281 14.2852L23.8302 13.3802ZM11.3757 9.91634C11.3757 7.48013 12.6738 5.34627 14.6202 4.17012L13.7152 2.67233C11.2661 4.15219 9.62565 6.84228 9.62565 9.91634H11.3757ZM14.0007 3.20801C13.8974 3.20801 13.7763 3.16143 13.6885 3.06997C13.614 2.99249 13.5968 2.91919 13.5927 2.88954C13.5878 2.85319 13.5902 2.74784 13.7152 2.67233L14.6202 4.17012C15.2072 3.81543 15.396 3.16598 15.3269 2.65532C15.2553 2.12448 14.8367 1.45801 14.0007 1.45801V3.20801ZM25.3281 14.2852C25.2525 14.4101 25.1471 14.4126 25.1108 14.4077C25.0812 14.4036 25.0078 14.3863 24.9303 14.3119C24.8389 14.224 24.7923 14.1029 24.7923 13.9997H26.5423C26.5423 13.1636 25.8758 12.745 25.345 12.6734C24.8343 12.6043 24.1848 12.7931 23.8302 13.3802L25.3281 14.2852ZM14.0007 24.7913C12.0335 24.7913 10.1919 24.2659 8.60545 23.3482L7.72919 24.863C9.57479 25.9306 11.7177 26.5413 14.0007 26.5413V24.7913ZM4.65219 19.3949C3.73449 17.8085 3.20898 15.9668 3.20898 13.9997H1.45898C1.45898 16.2826 2.06975 18.4255 3.13737 20.2711L4.65219 19.3949Z" fill="#3AB0FF"/>
</svg>
