<svg width="70" height="44" viewBox="0 0 70 44" fill="none" xmlns="http://www.w3.org/2000/svg">
    <g filter="url(#filter0_d_198_1458)">
        <path d="M12.184 16.52H28.312V22.76H12.184V16.52ZM12.76 35H4.984V1.4H30.376V7.64H12.76V35Z" fill="#5B636B"/>
        <path d="M51.3921 35.576C48.8001 35.576 46.3841 35.16 44.1441 34.328C41.9361 33.464 40.0161 32.248 38.3841 30.68C36.7521 29.112 35.4721 27.272 34.5441 25.16C33.6481 23.048 33.2001 20.728 33.2001 18.2C33.2001 15.672 33.6481 13.352 34.5441 11.24C35.4721 9.128 36.7521 7.288 38.3841 5.72C40.0481 4.152 41.9841 2.952 44.1921 2.12C46.4001 1.256 48.8161 0.823999 51.4401 0.823999C54.3521 0.823999 56.9761 1.336 59.3121 2.36C61.6801 3.352 63.6641 4.824 65.2641 6.776L60.2721 11.384C59.1201 10.072 57.8401 9.096 56.4321 8.456C55.0241 7.784 53.4881 7.448 51.8241 7.448C50.2561 7.448 48.8161 7.704 47.5041 8.216C46.1921 8.728 45.0561 9.464 44.0961 10.424C43.1361 11.384 42.3841 12.52 41.8401 13.832C41.3281 15.144 41.0721 16.6 41.0721 18.2C41.0721 19.8 41.3281 21.256 41.8401 22.568C42.3841 23.88 43.1361 25.016 44.0961 25.976C45.0561 26.936 46.1921 27.672 47.5041 28.184C48.8161 28.696 50.2561 28.952 51.8241 28.952C53.4881 28.952 55.0241 28.632 56.4321 27.992C57.8401 27.32 59.1201 26.312 60.2721 24.968L65.2641 29.576C63.6641 31.528 61.6801 33.016 59.3121 34.04C56.9761 35.064 54.3361 35.576 51.3921 35.576Z" fill="#3AB0FF"/>
    </g>
    <defs>
    <filter id="filter0_d_198_1458" x="0.984375" y="0.824219" width="68.2793" height="42.752" filterUnits="userSpaceOnUse" color-interpolation-filters="sRGB">
        <feFlood flood-opacity="0" result="BackgroundImageFix"/>
        <feColorMatrix in="SourceAlpha" type="matrix" values="0 0 0 0 0 0 0 0 0 0 0 0 0 0 0 0 0 0 127 0" result="hardAlpha"/>
        <feOffset dy="4"/>
        <feGaussianBlur stdDeviation="2"/>
        <feComposite in2="hardAlpha" operator="out"/>
        <feColorMatrix type="matrix" values="0 0 0 0 0 0 0 0 0 0 0 0 0 0 0 0 0 0 0.25 0"/>
        <feBlend mode="normal" in2="BackgroundImageFix" result="effect1_dropShadow_198_1458"/>
        <feBlend mode="normal" in="SourceGraphic" in2="effect1_dropShadow_198_1458" result="shape"/>
    </filter>
    </defs>
</svg>
